<?xml version="1.0" standalone="no"?>
<!DOCTYPE svg PUBLIC "-//W3C//DTD SVG 20010904//EN"
 "http://www.w3.org/TR/2001/REC-SVG-20010904/DTD/svg10.dtd">
<svg version="1.0" xmlns="http://www.w3.org/2000/svg"
 width="300.000000pt" height="300.000000pt" viewBox="0 0 300.000000 300.000000"
 preserveAspectRatio="xMidYMid meet">
<metadata>
Created by potrace 1.16, written by Peter Selinger 2001-2019
</metadata>
<g transform="translate(0.000000,300.000000) scale(0.100000,-0.100000)"
fill="#000000" stroke="none">
<path d="M0 1500 l0 -1500 1500 0 1500 0 0 1500 0 1500 -1500 0 -1500 0 0
-1500z m1692 1482 c30 -2 40 -8 52 -31 9 -16 14 -30 11 -32 -2 -2 18 -4 44 -4
42 0 47 2 43 19 -4 15 -1 17 19 11 13 -4 27 -13 31 -19 4 -6 18 -11 30 -12 73
-3 79 -4 72 -16 -5 -8 -2 -9 9 -5 9 3 36 -3 59 -13 l43 -20 -50 3 c-27 1 -55
5 -60 9 -6 4 -17 3 -25 -3 -8 -5 -22 -8 -30 -8 -10 0 -11 2 -2 6 6 2 12 9 12
15 0 6 -9 3 -20 -7 -11 -10 -20 -13 -20 -7 0 7 -7 12 -16 12 -8 0 -13 4 -10 8
3 5 -2 9 -11 9 -13 0 -12 -4 4 -17 20 -16 20 -17 -23 -16 -42 0 -61 18 -31 29
6 3 2 4 -10 4 -15 -1 -20 -6 -18 -19 4 -18 -10 -25 -19 -10 -3 5 -23 7 -45 5
-22 -1 -43 2 -46 7 -4 6 -12 4 -21 -5 -9 -8 -23 -15 -32 -15 -15 0 -15 2 -2
10 13 8 13 10 -2 10 -9 0 -19 6 -22 13 -3 6 -3 2 0 -10 3 -13 1 -23 -5 -23 -6
0 -11 4 -11 10 0 5 -7 7 -15 4 -8 -4 -22 -1 -30 6 -12 10 -16 9 -21 -4 -5 -13
-9 -14 -20 -5 -11 9 -14 8 -14 -2 0 -8 -6 -6 -16 7 -15 19 -16 19 -9 -1 5 -15
3 -17 -5 -8 -8 7 -22 8 -43 2 -42 -12 -50 -11 -41 4 6 9 5 9 -7 0 -19 -15
-120 -14 -111 2 3 5 -3 3 -13 -5 -14 -11 -19 -12 -22 -2 -3 6 -9 12 -14 12 -6
0 -7 -4 -4 -10 4 -6 -5 -10 -19 -10 -14 0 -26 5 -26 10 0 6 -7 10 -16 10 -8 0
-13 4 -10 8 3 5 -2 9 -11 9 -13 0 -13 -3 4 -16 18 -15 13 -16 -69 -19 -52 -1
-87 2 -84 7 3 5 -4 7 -16 4 -22 -4 -23 -4 -4 11 12 9 28 13 39 10 13 -4 17 -2
13 5 -4 6 0 12 8 12 25 2 30 4 44 13 7 4 19 3 28 -5 12 -10 13 -9 8 5 -4 11
-1 16 14 16 11 0 27 3 36 6 9 3 16 1 16 -6 0 -6 -4 -8 -10 -5 -11 7 -14 -8 -4
-18 9 -8 35 4 29 14 -6 9 25 28 56 34 10 2 19 0 19 -5 0 -5 7 -6 17 -3 9 4 14
2 10 -3 -3 -6 7 -10 22 -9 20 0 27 4 23 13 -2 8 -13 11 -23 9 -11 -3 -22 -1
-25 4 -3 5 18 9 45 9 42 0 51 -3 51 -17 0 -14 -2 -15 -9 -4 -6 9 -11 10 -15 2
-4 -6 -1 -12 6 -12 22 -2 32 -5 52 -14 22 -10 48 4 52 28 2 14 -1 15 -17 7
-10 -6 -19 -15 -19 -20 0 -6 -5 -10 -11 -10 -6 0 -9 7 -5 15 3 8 0 14 -6 12
-6 -1 -12 3 -15 10 -4 10 131 12 309 5z m508 -161 c0 -6 -25 -18 -56 -28 -44
-13 -52 -19 -37 -25 12 -6 10 -7 -10 -3 -19 4 -66 -10 -155 -46 -197 -81 -337
-147 -335 -158 2 -6 -4 -8 -12 -5 -14 6 -139 -55 -131 -63 2 -3 14 0 26 7 31
17 260 11 253 -6 -6 -15 -44 -14 -55 1 -5 6 -8 5 -8 -2 0 -7 -5 -13 -11 -13
-5 0 -7 5 -4 10 3 6 2 10 -4 10 -5 0 -13 -5 -16 -10 -4 -6 -44 -9 -103 -6
l-97 5 -110 -61 c-122 -68 -335 -197 -335 -204 0 -10 19 -2 40 16 16 14 27 17
35 10 6 -5 15 -6 19 -2 4 4 15 -2 23 -13 10 -13 14 -15 10 -4 -4 12 1 15 19
13 13 -1 31 4 38 12 17 17 26 18 26 4 0 -11 -49 -35 -63 -31 -5 1 -6 -3 -2 -9
4 -7 -6 -10 -29 -8 -21 1 -38 8 -41 18 -6 13 -8 12 -20 -4 -10 -14 -22 -17
-43 -13 -22 5 -39 -2 -77 -29 l-49 -34 82 0 82 0 163 84 c177 92 368 179 517
233 118 43 286 98 328 108 18 3 32 11 32 16 0 6 5 7 10 4 6 -4 33 -1 61 6 44
12 48 15 33 26 -17 12 -38 8 -30 -6 3 -3 -4 -7 -14 -7 -10 0 -16 4 -14 8 3 4
-1 8 -8 9 -7 0 -21 2 -30 4 -10 2 -21 -2 -25 -7 -4 -7 2 -9 15 -6 12 4 24 3
26 -1 3 -4 -11 -8 -30 -9 -23 -2 -33 1 -29 8 3 5 1 10 -4 10 -6 0 -11 -4 -11
-10 0 -12 -47 -13 -54 -1 -4 5 4 7 16 5 21 -4 22 -4 3 5 -15 6 -23 5 -32 -7
-14 -18 -22 -14 -27 15 -4 17 3 19 62 21 46 1 62 -2 52 -8 -13 -9 -13 -10 1
-10 8 0 20 5 27 12 8 8 15 8 27 -2 8 -7 15 -9 15 -4 0 5 5 2 10 -6 8 -13 10
-12 10 3 0 23 21 22 53 -3 24 -19 31 -20 94 -9 49 9 62 14 48 19 -11 4 8 7 45
6 l65 -1 67 -64 c38 -35 68 -67 68 -72 0 -5 -45 -9 -100 -9 -75 0 -99 -3 -98
-12 2 -9 -12 -14 -42 -15 -43 -1 -44 -1 -10 7 l35 7 -37 2 c-21 0 -38 -3 -38
-9 0 -5 -7 -7 -15 -4 -29 11 -405 -78 -405 -96 0 -10 20 -8 38 3 7 5 12 4 12
-2 0 -6 7 -11 15 -11 8 0 15 5 15 11 0 5 -6 7 -12 3 -10 -5 -10 -4 -1 6 11 12
37 5 29 -8 -2 -4 11 -8 30 -8 19 0 34 4 34 10 0 6 4 5 9 -3 6 -9 11 -10 15 -2
4 6 2 11 -4 11 -6 0 -8 5 -5 10 3 6 17 10 31 10 13 0 24 5 24 11 0 5 -5 7 -12
3 -6 -4 -8 -3 -5 3 8 13 284 15 292 3 3 -6 1 -10 -4 -10 -6 0 -11 -12 -11 -26
0 -21 3 -25 18 -19 35 15 52 17 52 7 0 -5 18 -9 39 -9 31 1 39 5 38 18 -1 14
-6 15 -25 8 -25 -10 -37 -5 -37 12 0 5 -4 8 -10 7 -5 -2 -9 -6 -7 -10 2 -7
-13 -10 -34 -7 -4 0 -11 -5 -15 -13 -7 -10 -9 -9 -9 5 0 10 8 17 20 17 11 0
20 5 20 11 0 5 -4 7 -10 4 -5 -3 -10 -2 -10 4 0 11 249 11 256 0 2 -4 -3 -12
-11 -19 -19 -16 -19 -39 0 -36 18 3 32 16 17 16 -7 0 -12 5 -12 10 0 18 18 11
25 -10 3 -11 14 -20 22 -20 9 0 13 -3 10 -7 -4 -3 -24 -6 -44 -5 -37 1 -38 1
-13 -12 15 -8 32 -10 42 -4 23 11 26 10 37 -10 7 -14 6 -18 -9 -18 -11 0 -16
6 -13 16 4 13 3 13 -9 -1 -15 -18 -138 -27 -138 -10 0 6 -5 11 -11 11 -5 0 -7
-4 -4 -10 3 -5 3 -10 0 -10 -10 0 -35 28 -35 39 0 6 -5 11 -11 11 -6 0 -9 -7
-5 -15 3 -8 0 -15 -7 -16 -7 -1 -1 -5 13 -10 21 -7 18 -8 -15 -5 -22 1 -49 7
-59 11 -14 6 -17 5 -12 -3 4 -7 1 -12 -9 -12 -9 0 -13 5 -10 10 3 6 1 10 -4
10 -6 0 -11 -4 -11 -10 0 -5 -20 -10 -45 -10 -25 0 -45 5 -45 10 0 6 12 8 28
5 20 -4 22 -3 7 3 -19 9 -19 9 0 20 18 10 18 11 -7 9 -15 -1 -28 -6 -29 -12
-3 -14 -31 -34 -49 -34 -10 0 -8 3 5 9 11 5 14 9 7 9 -7 1 -10 6 -7 11 4 6 11
7 17 4 6 -4 8 -2 4 4 -3 6 -15 10 -26 9 -10 -1 -16 -5 -14 -9 3 -5 -1 -15 -10
-23 -16 -17 -101 -21 -91 -5 4 6 -6 10 -22 9 -25 0 -26 -1 -8 -9 19 -8 19 -9
-2 -9 -13 -1 -23 5 -23 12 0 8 -7 14 -15 14 -9 0 -14 -6 -11 -14 4 -9 -5 -13
-32 -12 -30 0 -33 2 -17 9 11 5 14 9 7 9 -7 1 -21 -3 -31 -9 -15 -8 -18 -5
-16 14 3 21 -1 24 -39 24 -38 0 -39 -1 -16 -11 14 -5 31 -9 37 -8 7 1 10 -4 7
-12 -6 -17 -134 -24 -134 -8 0 6 -5 11 -11 11 -5 0 -7 -4 -4 -10 3 -5 2 -10
-3 -10 -6 0 -12 6 -15 14 -8 20 18 27 40 11 10 -8 32 -14 48 -14 26 0 27 2 10
9 -11 5 -16 9 -11 9 5 1 3 8 -4 16 -10 12 -10 15 0 15 8 0 11 3 8 6 -3 3 -41
-7 -85 -23 -77 -28 -78 -28 -43 -35 29 -6 27 -6 -12 -4 -27 2 -48 0 -48 -5 0
-5 14 -9 31 -9 18 0 28 -4 24 -10 -4 -6 -16 -8 -28 -4 -12 3 -19 3 -15 -1 10
-11 59 -15 53 -5 -3 5 -1 11 4 14 5 3 11 -1 15 -9 3 -8 16 -14 30 -13 14 1 22
7 19 14 -7 18 73 16 88 -2 6 -8 16 -14 22 -14 6 0 2 6 -9 14 -17 13 -14 15 34
13 34 -1 57 -7 63 -17 9 -12 10 -12 5 3 -5 15 -1 18 27 15 30 -3 32 -5 29 -38
-2 -19 -1 -33 2 -29 3 3 6 19 8 37 2 31 4 32 49 32 29 0 49 -5 52 -13 6 -15
57 -21 57 -6 0 6 -7 9 -15 6 -8 -4 -17 -2 -20 3 -4 6 7 10 24 10 17 0 31 -4
31 -10 0 -5 9 -14 19 -19 15 -8 20 -7 25 5 4 12 2 15 -9 11 -8 -4 -17 -2 -20
3 -3 5 10 9 29 8 29 -1 34 -4 24 -15 -6 -7 -8 -16 -4 -20 3 -3 6 -1 6 6 0 7 5
9 10 6 6 -4 9 -1 8 6 -2 6 3 14 11 17 10 3 12 0 8 -11 -4 -11 -2 -14 8 -10 8
3 12 9 9 14 -3 5 2 9 10 9 9 0 16 -5 16 -12 0 -9 3 -9 12 0 15 15 72 16 63 2
-4 -6 -16 -8 -28 -4 -12 3 -19 3 -15 -1 10 -11 59 -15 53 -5 -3 5 -1 11 4 14
5 3 11 -1 15 -9 3 -8 16 -14 30 -13 14 1 22 7 19 14 -7 18 73 16 88 -2 6 -8
16 -14 22 -14 6 0 2 6 -8 14 -18 13 -14 14 33 13 51 0 53 -1 81 -47 l28 -46
-29 -2 c-34 -3 -76 26 -71 48 4 13 3 13 -6 0 -7 -10 -6 -19 6 -32 15 -17 14
-18 -13 -18 -17 0 -36 6 -43 13 -11 10 -13 9 -7 -1 10 -17 -94 -12 -112 6 -8
7 -19 9 -25 5 -7 -4 -4 -9 9 -14 13 -5 8 -7 -18 -7 -24 1 -35 5 -31 12 5 7 2
7 -8 0 -17 -14 -107 -15 -133 -2 -13 7 -16 7 -12 -1 8 -13 -29 -14 -59 -2 -11
5 -25 4 -32 -1 -9 -7 -13 -7 -13 2 0 9 -4 9 -12 2 -7 -5 -56 -9 -108 -8 -100
1 -142 16 -133 45 4 14 3 14 -6 1 -7 -11 -6 -19 6 -32 15 -17 14 -18 -13 -18
-17 0 -36 6 -43 13 -11 10 -13 9 -7 -1 10 -17 -94 -12 -112 6 -8 7 -19 9 -25
5 -7 -4 -4 -9 9 -14 13 -5 8 -7 -18 -7 -24 1 -35 5 -31 12 5 7 2 7 -8 0 -17
-14 -107 -15 -133 -2 -13 7 -16 7 -12 -1 4 -6 0 -11 -11 -11 -28 0 -63 11 -63
20 0 15 33 21 42 8 6 -10 8 -9 8 4 0 18 53 42 115 53 11 2 22 4 25 4 2 1 0 5
-6 11 -14 14 -116 -27 -346 -138 -92 -44 -116 -62 -85 -62 8 0 47 -17 88 -39
l75 -38 144 44 c277 84 515 119 740 110 193 -8 299 -40 381 -114 57 -51 79
-100 79 -170 -1 -112 -74 -237 -223 -380 -77 -74 -240 -203 -257 -203 -3 0
-14 -15 -22 -34 -47 -98 -139 -157 -252 -161 -59 -2 -88 -10 -166 -44 -281
-126 -602 -218 -872 -251 -141 -18 -404 -8 -489 18 -87 26 -126 47 -172 91
-48 45 -63 73 -72 133 -24 160 159 399 468 607 l77 53 0 54 c0 30 -3 54 -6 54
-9 0 -203 -148 -274 -209 -168 -144 -335 -323 -405 -433 -17 -27 -33 -48 -36
-48 -3 0 -13 41 -21 91 l-15 92 62 71 c127 145 459 422 651 543 42 27 44 30
44 77 0 37 -3 46 -12 39 -7 -5 -51 -38 -98 -74 -215 -161 -367 -294 -542 -471
-74 -75 -108 -104 -108 -91 0 18 204 228 333 342 70 62 279 229 364 291 34 25
63 54 65 65 2 14 12 21 31 23 15 2 92 45 170 96 78 51 179 115 225 141 45 26
80 50 78 52 -2 3 -17 -4 -32 -14 -16 -10 -25 -13 -21 -6 4 6 3 14 -3 18 -5 3
-10 -1 -10 -9 0 -9 -6 -16 -14 -16 -25 0 -14 36 11 38 13 1 23 -3 23 -9 0 -8
5 -8 15 1 8 7 21 10 29 7 18 -7 419 197 409 208 -5 4 -2 5 4 1 7 -4 52 10 100
32 84 37 184 77 303 121 59 21 110 27 110 12z m-1493 -183 c-3 -10 -1 -18 4
-18 8 0 13 13 11 31 -1 3 19 6 44 8 30 1 44 -2 44 -11 0 -9 3 -9 12 0 17 17
28 15 28 -4 0 -8 -4 -12 -10 -9 -5 3 -10 1 -10 -4 0 -6 7 -11 15 -11 8 0 15 8
15 19 0 14 7 18 30 17 35 -1 34 -17 -1 -27 -21 -6 -20 -7 9 -8 20 -1 31 3 27
9 -3 6 -1 10 5 10 6 0 8 5 5 10 -9 15 58 12 74 -2 11 -10 13 -10 7 0 -5 9 5
12 37 12 51 0 62 -7 44 -28 -8 -11 -8 -14 0 -9 6 4 14 3 18 -3 4 -6 -5 -10
-20 -10 -14 0 -24 3 -22 8 3 4 -9 8 -26 9 -26 1 -28 0 -12 -7 14 -6 15 -9 4
-9 -8 -1 -20 4 -27 11 -9 9 -12 9 -12 0 0 -7 -9 -12 -21 -12 -21 0 -21 0 2 20
13 10 19 19 13 20 -6 0 -19 -9 -29 -20 -16 -17 -31 -20 -111 -20 -51 0 -96 4
-99 10 -3 6 -12 10 -18 10 -7 0 -6 -4 3 -10 10 -7 -7 -10 -58 -10 -64 0 -73 2
-70 17 2 10 -2 18 -9 18 -6 0 -14 2 -17 5 -3 3 24 6 60 6 58 0 65 -3 61 -18z
m487 10 c-5 -7 -3 -8 7 -2 18 11 60 13 53 3 -2 -4 0 -10 6 -14 5 -3 10 1 10 9
0 11 9 16 28 16 21 0 24 -2 12 -10 -13 -8 -13 -10 2 -10 9 0 19 4 22 8 6 10
79 7 96 -3 5 -3 10 -2 10 3 0 4 52 8 116 8 114 1 116 0 93 -17 -13 -10 -29
-17 -36 -14 -7 2 -15 0 -18 -5 -3 -5 -50 -9 -106 -8 -97 0 -100 0 -94 21 4 15
3 18 -3 9 -5 -8 -20 -13 -33 -12 -38 3 -46 -1 -19 -10 24 -8 23 -8 -8 -9 -20
-1 -31 3 -27 9 3 6 1 10 -4 10 -6 0 -11 -4 -11 -10 0 -5 -9 -10 -20 -10 -11 0
-20 5 -20 12 0 9 -3 9 -12 0 -14 -14 -52 -16 -43 -2 3 6 -1 10 -9 10 -9 0 -16
-5 -16 -12 0 -17 -10 -4 -15 21 -3 17 1 21 21 21 17 0 23 -4 18 -12z m-674
-60 c0 -4 7 -8 16 -8 8 0 13 4 10 8 -3 5 15 9 40 9 35 1 44 -2 42 -15 -4 -21
29 -22 62 -2 25 16 80 21 80 8 0 -5 5 -8 11 -8 5 0 8 3 5 8 -2 4 9 8 25 8 16
1 29 -3 29 -8 0 -5 -8 -8 -18 -6 -11 2 -20 -1 -21 -7 0 -5 17 -10 39 -10 26
-1 40 4 40 12 0 7 -7 10 -15 7 -8 -4 -15 -1 -15 5 0 6 9 11 20 11 13 0 20 -7
20 -20 0 -11 5 -20 11 -20 5 0 7 6 3 13 -6 10 -4 10 7 0 17 -17 37 -17 21 -1
-17 17 -15 28 6 25 32 -5 43 -17 29 -31 -15 -17 -420 -19 -409 -2 3 6 0 6 -9
-1 -8 -6 -35 -11 -62 -10 -26 0 -42 4 -36 8 7 4 18 5 25 2 6 -2 15 0 19 6 3 6
1 11 -5 11 -6 0 -9 4 -6 8 3 5 12 9 21 9 8 0 15 -4 15 -9z m-146 -149 c4 6 21
11 37 11 18 0 28 -4 24 -10 -3 -5 -1 -10 4 -10 6 0 11 5 11 10 0 6 7 10 15 10
8 0 15 -5 15 -11 0 -5 -4 -7 -10 -4 -5 3 -10 -1 -10 -9 0 -9 -3 -15 -7 -15 -5
1 -16 1 -25 0 -21 -1 -14 -28 8 -28 9 0 13 6 10 14 -3 8 -1 11 4 8 6 -3 22 6
36 22 14 15 23 23 20 17 -3 -7 1 -14 9 -18 8 -3 15 -16 15 -28 0 -18 2 -20 9
-8 6 8 7 18 5 22 -3 5 -2 8 3 7 4 -1 21 1 36 6 21 6 25 10 15 16 -9 6 -7 9 10
9 13 0 20 -4 17 -10 -3 -5 -2 -10 4 -10 5 0 11 6 14 13 3 9 9 7 24 -6 11 -9
23 -14 26 -10 4 3 17 -3 30 -14 32 -29 44 -34 44 -19 0 8 -6 12 -13 9 -6 -2
-15 0 -19 6 -6 10 8 16 30 11 6 -1 5 4 -2 11 -10 9 -15 10 -27 0 -10 -9 -16
-9 -21 -1 -4 6 -13 9 -21 6 -7 -3 -16 -1 -20 5 -4 6 15 9 53 7 46 -2 57 -6 55
-19 -1 -9 4 -16 12 -16 8 0 11 7 9 17 -4 16 7 17 116 17 83 0 118 -4 114 -11
-3 -6 0 -5 8 2 18 17 30 15 23 -3 -4 -8 -1 -15 5 -15 6 0 11 6 11 13 0 8 16
13 45 14 49 3 56 -5 25 -25 -25 -15 -27 -41 -2 -37 9 2 19 4 22 4 3 1 -2 5
-10 11 -8 5 -11 12 -7 16 4 4 15 0 24 -9 16 -16 15 -18 -15 -29 -18 -7 -32
-16 -32 -20 0 -5 -9 -3 -19 4 -15 9 -25 9 -43 0 -22 -11 -22 -11 5 -6 32 7 36
-6 6 -24 -12 -8 -18 -9 -14 -3 3 6 1 11 -4 11 -6 0 -11 -5 -11 -11 0 -12 -93
-8 -124 6 -14 6 -17 5 -12 -3 5 -8 -3 -12 -23 -12 -22 0 -29 4 -25 14 3 8 0
17 -7 22 -7 4 -10 3 -7 -2 3 -5 -1 -15 -8 -22 -13 -12 -14 -9 -9 15 7 28 7 28
-7 4 -16 -28 -34 -27 -30 3 4 20 -4 21 -9 1 -4 -20 -36 -32 -89 -33 -42 -1
-50 1 -35 9 17 8 15 9 -9 5 -31 -4 -67 18 -43 27 6 2 0 4 -14 3 -19 -1 -25 -5
-21 -18 2 -10 8 -16 12 -13 5 3 11 1 15 -5 3 -5 -3 -10 -14 -10 -12 0 -21 7
-21 16 0 8 -5 12 -10 9 -6 -3 -13 1 -16 9 -8 21 -41 21 -41 1 0 -9 6 -14 12
-11 6 2 12 -2 12 -10 0 -8 -9 -13 -23 -12 -12 1 -20 6 -18 10 3 4 0 8 -5 8 -6
0 -11 -4 -11 -10 0 -5 -11 -10 -24 -10 -17 0 -26 7 -30 25 -4 15 -13 25 -24
25 -15 0 -15 -2 -2 -10 8 -5 11 -10 5 -11 -5 -1 -14 -3 -20 -4 -5 -2 -19 -4
-30 -5 -11 -2 -2 -6 20 -10 33 -6 27 -7 -35 -8 -41 0 -69 2 -62 5 6 2 10 8 7
13 -3 5 7 7 22 5 25 -2 26 -2 9 11 -16 11 -17 16 -6 29 7 8 17 12 22 8 6 -3 8
0 6 8 -7 19 23 54 33 38 5 -8 8 -8 13 0z m1251 1 c-4 -6 -10 -8 -15 -5 -4 3
-11 -1 -13 -7 -4 -9 -8 -9 -14 -3 -12 15 -46 12 -51 -4 -3 -8 0 -11 7 -7 6 4
11 5 11 2 0 -3 -10 -10 -21 -17 -12 -6 -19 -7 -16 -2 3 5 -3 9 -13 9 -13 0
-16 -4 -9 -12 7 -8 0 -15 -23 -24 -18 -7 -35 -13 -38 -14 -3 -1 -11 -5 -17 -9
-25 -16 -53 -16 -53 -1 0 8 -2 14 -4 14 -2 0 -13 3 -23 6 -16 5 -16 4 1 -10
15 -12 16 -16 5 -16 -12 0 -12 -2 1 -10 13 -8 12 -10 -2 -10 -10 0 -18 6 -18
13 0 8 -7 14 -15 14 -9 0 -14 -6 -11 -14 4 -9 -5 -13 -32 -12 -30 2 -32 3 -9
6 27 4 35 17 17 28 -5 3 -10 1 -10 -4 0 -6 -9 -11 -20 -11 -11 0 -20 -4 -20
-10 0 -5 -5 -10 -10 -10 -6 0 -6 7 2 19 6 10 17 17 25 14 7 -3 16 2 19 11 3 9
12 16 20 16 8 0 14 6 14 13 0 8 3 7 10 -3 8 -12 10 -12 16 3 3 9 10 14 15 11
5 -3 6 -11 3 -17 -4 -7 -3 -8 2 -4 5 5 9 16 9 25 0 10 9 18 23 20 12 2 22 7
22 11 0 3 54 8 121 9 79 1 118 -1 114 -8z m-1233 -145 c5 -6 8 -6 8 3 0 6 10
12 23 11 12 0 16 -3 10 -6 -19 -7 -16 -21 7 -28 11 -3 20 -11 20 -16 0 -6 -5
-7 -12 -3 -7 4 -8 3 -4 -4 4 -7 2 -12 -5 -12 -7 0 -10 -3 -6 -6 3 -3 12 -2 19
2 7 5 16 9 20 9 3 0 10 4 15 9 5 5 3 6 -4 2 -8 -4 -13 -1 -13 8 0 9 -7 16 -15
16 -9 0 -12 6 -9 15 4 10 18 14 48 12 34 -2 40 -5 38 -21 -2 -11 1 -15 8 -11
6 4 9 13 7 20 -4 9 7 12 36 12 42 0 49 -3 98 -50 18 -18 29 -23 29 -14 0 8 7
20 15 27 17 14 20 30 5 30 -5 0 -10 -6 -10 -14 0 -8 -5 -18 -10 -21 -13 -8
-42 14 -35 25 3 5 -5 10 -17 13 -13 2 5 4 39 4 44 1 63 -3 67 -13 6 -16 46
-19 46 -4 0 5 -6 7 -14 4 -8 -3 -17 -1 -20 5 -4 6 13 10 44 9 32 0 50 -4 47
-11 -2 -6 -10 -12 -18 -15 -11 -3 -11 -2 1 7 13 10 13 11 0 11 -8 0 -20 -8
-26 -18 -10 -16 -8 -17 22 -14 30 4 38 11 36 33 -1 3 6 6 14 6 7 0 14 -5 14
-11 0 -6 5 -5 12 2 7 7 36 11 67 11 31 -1 48 -3 39 -6 -10 -2 -18 -8 -18 -13
0 -5 -24 -23 -52 -41 -44 -27 -64 -33 -118 -34 -36 -1 -75 2 -87 6 -13 5 -23
5 -23 0 0 -9 -93 -6 -109 3 -6 4 -11 4 -11 -1 0 -13 -184 -13 -192 0 -5 8 -8
7 -8 -3 0 -13 -1 -13 -10 0 -7 11 -10 11 -10 2 0 -10 -24 -13 -100 -11 -94 1
-99 2 -89 20 5 11 15 19 21 19 6 0 5 -7 -3 -17 -13 -16 -12 -17 3 -4 10 7 15
18 12 23 -3 5 -3 20 0 34 6 24 9 25 79 22 40 -1 75 -7 79 -13z m2568 -467 c30
-137 31 -133 -62 -232 -135 -146 -469 -426 -596 -501 -30 -18 -32 -23 -32 -73
l0 -54 38 28 c214 159 335 264 530 457 110 109 152 145 152 130 0 -41 -377
-388 -627 -578 -88 -66 -93 -72 -93 -107 l0 -38 -52 0 c-48 0 -61 -6 -187 -88
-373 -243 -755 -437 -1097 -558 -78 -27 -125 -39 -134 -34 -12 8 -12 10 0 14
404 134 805 331 1215 597 l100 64 -89 3 -90 3 -195 -100 c-385 -196 -744 -325
-1085 -390 -86 -17 -112 -19 -125 -9 -31 23 -121 112 -121 120 0 4 39 8 88 8
269 1 692 121 1090 311 128 61 142 70 142 93 0 24 3 26 49 26 40 0 63 8 127
46 124 73 324 206 324 215 0 5 5 9 12 9 34 0 308 231 453 381 93 98 206 240
228 287 16 34 24 27 37 -30z"/>
<path d="M1985 1973 c-11 -1 -64 -5 -117 -8 l-98 -7 0 -47 c0 -60 29 -106 85
-135 60 -31 222 -30 285 2 56 28 81 62 88 118 4 39 2 44 -21 53 -14 5 -53 13
-86 17 l-61 7 0 -32 c0 -26 -4 -31 -24 -31 -21 0 -25 6 -28 33 -2 25 -7 32
-23 30z"/>
<path d="M1623 1922 c-34 -10 -64 -20 -68 -24 -4 -3 9 -30 29 -60 78 -118 115
-281 95 -423 -11 -82 -44 -183 -76 -231 -21 -32 -29 -34 91 16 42 18 76 34 76
36 0 2 -10 23 -22 46 -33 63 -32 175 2 241 88 173 329 204 451 58 l33 -38 38
46 c98 118 113 234 39 305 l-28 27 -6 -41 c-7 -57 -48 -114 -104 -147 -42 -24
-60 -28 -151 -31 -62 -3 -120 0 -146 8 -87 24 -156 108 -156 190 0 46 -2 47
-97 22z"/>
<path d="M1148 1744 l-68 -34 0 -274 0 -274 50 13 c98 26 173 86 222 178 20
36 23 57 23 142 0 90 -3 105 -28 153 -29 56 -99 132 -119 132 -7 -1 -43 -17
-80 -36z"/>
<path d="M724 1444 c-119 -142 -142 -240 -74 -317 28 -32 105 -75 115 -65 3 3
4 101 3 218 l-3 212 -41 -48z"/>
</g>
</svg>
